<svg aria-hidden="true" style="width:0;height:0;position:absolute;overflow:hidden" xmlns="http://www.w3.org/2000/svg"><defs><symbol id="logo" viewBox="0 0 35 32"><path d="m15.321.667-1.595.667-.002.227c-.001.124.001.227.003.227s.718-.298 1.59-.663c.872-.364 1.59-.664 1.595-.665s.653.237 1.437.531l1.465.547.037.014v-.375L18.394.593 16.927.005c-.005-.002-.728.296-1.605.663z"/><path d="m15.301 1.596-1.593.666v.456l.034-.014 1.598-.668 1.565-.655 1.462.547 1.465.546c.001 0 .003-.084.002-.187l-.002-.187-1.458-.585c-.802-.322-1.464-.585-1.47-.585s-.728.3-1.604.666z"/><path d="m15.331 2.503-1.592.668-.024.011v.225c0 .124.001.225.004.225s.72-.3 1.596-.666c.876-.367 1.597-.666 1.6-.666s.662.245 1.463.544c.801.3 1.459.545 1.461.545s.004-.084.003-.187l-.002-.187-1.459-.585c-.802-.322-1.464-.586-1.47-.585s-.717.296-1.58.657z"/><path d="m14.776 3.63-2.162.942v.321c0 .254.002.32.009.317l2.16-.941c1.183-.516 2.154-.937 2.156-.937.003 0 .895.347 1.982.771l1.977.77.002-.26a3.248 3.248 0 0 0-.004-.266c-.004-.004-3.955-1.659-3.959-1.658l-2.162.942z"/><path d="m14.756 4.936-2.152.938-.002.32c-.001.176.001.32.003.32s.973-.422 2.157-.938c1.183-.516 2.156-.937 2.161-.937s.892.345 1.974.766l1.979.771c.011.004.012-.011.012-.26v-.264l-1.971-.825c-1.085-.453-1.98-.826-1.99-.827-.011-.001-.779.33-2.17.937z"/><path d="m14.77 6.228-2.16.942-.002.32c-.001.176.001.32.003.32l2.164-.94 2.159-.941 1.975.77 1.984.773c.006.003.009-.052.009-.261v-.265l-.08-.034c-.475-.2-3.89-1.627-3.892-1.626l-2.16.942z"/><path d="m13.79 7.784-3.234 1.363-.088.036v.465c0 .369.002.464.009.461l3.23-1.361c2.191-.923 3.229-1.357 3.246-1.357.016 0 1.085.399 2.98 1.113 1.625.612 2.958 1.113 2.963 1.113s.007-.129.007-.38v-.379l-.03-.014c-.142-.062-5.899-2.384-5.916-2.386s-.895.366-3.168 1.324z"/><path d="m13.683 9.71-3.239 1.364-.002.466-.001.466.016-.006 3.244-1.366 3.229-1.359 2.96 1.115 2.974 1.12c.011.005.012-.015.011-.379l-.002-.384-2.971-1.201c-1.634-.661-2.973-1.201-2.975-1.2L13.684 9.71z"/><path d="m13.692 11.639-3.238 1.363v.464c0 .255.001.463.003.463l3.241-1.363c1.956-.824 3.244-1.362 3.252-1.359s1.345.503 2.97 1.116c1.626.613 2.959 1.113 2.963 1.113s.006-.159.006-.381v-.38l-2.97-1.2c-1.633-.659-2.974-1.199-2.98-1.199s-1.467.614-3.248 1.364z"/><path d="m13.669 13.529-3.239 1.364-.002.466-.001.466.016-.006 3.246-1.366 3.229-1.359 5.942 2.237.002-.38a6.754 6.754 0 0 0-.004-.385c-.006-.006-5.922-2.396-5.937-2.399-.006-.001-1.468.612-3.25 1.363zM26.038 14.375l-2.748 1.16v.396c0 .314.002.395.009.392a3736.287 3736.287 0 0 1 5.497-2.316c.006-.001 1.142.426 2.526.947 1.383.522 2.516.949 2.519.949s.004-.146.004-.324v-.325l-2.514-1.018c-1.382-.56-2.521-1.018-2.529-1.02s-1.252.52-2.763 1.158z"/><path d="m13.69 15.402-3.239 1.364-.002.466-.001.466.041-.017 3.244-1.365 3.203-1.349 2.961 1.115 2.974 1.12c.011.005.012-.015.011-.379l-.002-.384-2.971-1.201-2.975-1.2-3.243 1.364zM26.017 15.984l-2.748 1.16v.392c0 .309.002.392.009.392.004 0 1.244-.521 2.754-1.158l2.745-1.158 2.521.951c1.386.523 2.521.95 2.523.95s.003-.146.003-.325c0-.253-.002-.325-.009-.328l-2.512-1.017a404.115 404.115 0 0 0-2.521-1.016c-.011-.001-1.008.415-2.765 1.157z"/><path d="m13.68 17.287-3.237 1.365-.024.011v.462c0 .437.001.462.013.459l3.226-1.357c1.767-.744 3.224-1.357 3.236-1.36.019-.006.348.116 2.978 1.107 1.626.612 2.964 1.115 2.973 1.117l.016.003-.001-.381-.002-.381-2.968-1.2c-1.632-.659-2.974-1.199-2.982-1.199s-1.461.61-3.229 1.354zM26.043 17.572l-2.75 1.16-.002.395c-.001.217 0 .395.002.395l2.744-1.156c1.507-.636 2.748-1.156 2.758-1.156s1.148.427 2.528.948l2.51.948.002-.323c.001-.177-.001-.325-.004-.328s-1.128-.459-2.5-1.015c-1.372-.555-2.505-1.013-2.517-1.019-.022-.009-.094.021-2.772 1.151zM3.683 18.281l-2.22.982-.002.336-.001.337.044-.021c.233-.105 4.405-1.945 4.411-1.945s3.326 1.309 4.075 1.607c.007.003.009-.053.007-.273l-.002-.277-2.038-.864c-1.121-.476-2.041-.865-2.045-.864l-2.228.983z"/><path d="m13.676 19.221-3.239 1.364-.002.466-.001.466.026-.011 3.245-1.366 3.218-1.355 2.96 1.115 2.973 1.12c.011.005.012-.015.011-.379l-.002-.385-2.971-1.2c-1.634-.661-2.973-1.201-2.975-1.2l-3.243 1.365zM26.022 19.181l-2.75 1.159-.002.395c-.001.217 0 .395.001.395l2.75-1.158c1.511-.637 2.75-1.158 2.752-1.158l2.522.95 2.517.95.002-.323a4.893 4.893 0 0 0-.004-.327c-.004-.004-4.797-1.947-5.008-2.03l-.032-.013-2.75 1.16zM3.692 19.632l-2.218.98-.001.334c0 .184.001.335.004.335s1.002-.441 2.222-.98c1.221-.54 2.224-.98 2.23-.98s.926.363 2.045.805l2.034.804.002-.272a3.519 3.519 0 0 0-.004-.277c-.011-.011-4.072-1.73-4.084-1.729-.006.001-1.01.442-2.23.982z"/><path d="m26.032 20.82-2.752 1.161-.002.395c-.001.374-.001.395.011.391.007-.001 1.246-.523 2.754-1.159l2.741-1.156 2.511.948 2.524.952c.011.005.012-.012.011-.322l-.002-.327-2.428-.983-2.521-1.021-.094-.039-2.752 1.161zM13.65 21.114l-3.238 1.363v.464c0 .255.001.463.004.463s1.46-.613 3.239-1.362 3.239-1.362 3.244-1.362 5.932 2.229 5.944 2.236c.003.001.005-.17.005-.382l-.001-.385-2.963-1.197c-1.63-.659-2.971-1.198-2.98-1.199s-1.3.538-3.253 1.361zM3.683 20.991l-2.22.982-.002.337-.001.336.073-.033 2.225-.983 2.152-.951 2.028.802 2.041.806c.011.004.012-.011.011-.272l-.002-.276-2.031-.862-2.042-.864c-.006-.002-1.01.439-2.231.979z"/><path d="m26.008 22.429-2.75 1.16-.002.395c-.001.217.001.394.003.394l2.754-1.159 2.749-1.16 2.508.946 2.524.952.016.006-.001-.327-.002-.326-2.524-1.022-2.524-1.02-2.75 1.161zM3.692 22.38l-2.226.984v.335c0 .184.002.334.006.332l2.225-.984 2.22-.98 2.027.801c1.115.441 2.034.803 2.044.805l.016.004v-.544l-.019-.011a3383.12 3383.12 0 0 0-4.046-1.717c-.021-.009-.11.03-2.247.974zM13.669 22.961l-3.239 1.364-.002.463c-.001.335.001.463.006.463.004 0 1.461-.611 3.237-1.359l3.237-1.363c.006-.002 5.642 2.114 5.919 2.222l.034.014v-.385l-.001-.384-2.962-1.196c-1.629-.658-2.968-1.198-2.976-1.199s-1.337.553-3.254 1.362z"/><path d="m3.672 23.744-2.224.983-.002.333c-.001.223.001.332.006.332s1.005-.441 2.225-.98c1.363-.602 2.224-.979 2.233-.977s3.857 1.522 4.064 1.605c.007.003.009-.053.007-.273l-.002-.277-2.038-.865c-1.121-.475-2.039-.864-2.042-.864s-1.004.443-2.228.983zM26.041 23.991c-1.498.632-2.734 1.155-2.747 1.161l-.024.011v.394c0 .313.002.393.009.39l2.751-1.161a515.21 515.21 0 0 1 2.75-1.156c.004 0 1.138.427 2.521.949s2.516.948 2.519.948c.002 0 .004-.146.004-.324v-.324l-2.514-1.018c-1.383-.56-2.521-1.018-2.53-1.02s-1.241.516-2.739 1.148zM13.768 24.8l-3.244 1.366-.12.051v.464c0 .255.001.464.002.464l3.243-1.364 3.241-1.364 2.969 1.118c1.633.615 2.971 1.118 2.975 1.118s.005-.172.005-.381v-.381l-2.847-1.151c-1.567-.633-2.905-1.173-2.974-1.202l-.127-.051-3.123 1.314z"/><path d="m3.683 25.074-2.22.983-.002.337c-.001.185.001.335.004.334.014-.009 4.444-1.964 4.45-1.964.004 0 .922.362 2.042.804l2.038.804c.002 0 .002-.124.001-.276l-.002-.276-2.031-.861c-1.117-.474-2.037-.862-2.045-.864s-.979.423-2.235.979zM26 25.607l-2.748 1.16c-.004.001-.004.18-.004.397l.002.395 2.746-1.158c1.51-.637 2.752-1.158 2.76-1.158s1.145.426 2.526.948l2.515.948c.001 0 .004-.146.004-.325v-.325l-.044-.018-2.512-1.017c-1.357-.549-2.475-1-2.485-1.002-.011-.001-1.013.418-2.76 1.156zM13.657 26.778l-3.238 1.364v.463c0 .255.002.463.005.463s1.462-.614 3.243-1.363l3.237-1.363 2.963 1.116 2.975 1.121c.011.005.012-.015.011-.379l-.002-.384-2.971-1.201c-1.634-.66-2.974-1.2-2.978-1.2s-1.464.614-3.244 1.364z"/><path d="m3.663 26.439-2.219.981v.335c0 .265.002.335.009.332l2.222-.982c1.217-.538 2.218-.978 2.224-.977.006 0 .923.361 2.038.802s2.031.801 2.036.801c.008 0 .009-.054.008-.273l-.002-.273-2.034-.864c-1.119-.474-2.041-.863-2.049-.863s-1.013.442-2.232.981zM26.01 27.246l-2.748 1.16v.791l.024-.009c1.387-.588 5.475-2.31 5.483-2.309.006 0 1.141.427 2.524.948s2.516.948 2.519.948c.004 0 .006-.146.006-.324v-.323l-2.523-1.021c-1.387-.561-2.525-1.02-2.529-1.02s-1.244.523-2.755 1.16z"/><path d="m3.674 27.825-2.222.982-.001.334c0 .184.002.335.004.335l2.222-.98c1.22-.54 2.223-.98 2.229-.98s.926.363 2.045.805l2.034.804.002-.272a3.554 3.554 0 0 0-.004-.278 860.802 860.802 0 0 0-4.075-1.728c-.008-.001-1.01.438-2.236.979zM15.832 27.745l-3.244 1.366-2.197.925v.465c0 .439.001.464.013.459l3.241-1.364a967.47 967.47 0 0 1 3.236-1.359c.004 0 1.338.501 2.964 1.114s2.963 1.116 2.97 1.117c.011.004.012-.018.012-.378v-.383l-2.722-1.1-2.973-1.201-.251-.102-1.047.441zM25.99 28.854c-1.51.637-2.747 1.159-2.748 1.161l-.001.396.002.393 5.502-2.32 2.519.95c1.386.523 2.521.95 2.525.95s.005-.146.005-.324v-.324l-2.515-1.018c-1.384-.56-2.522-1.019-2.53-1.02s-1.25.519-2.759 1.156z"/><path d="m3.664 29.186-2.223.983-.002.337c-.001.185.001.335.004.334l2.225-.984 2.22-.981 2.037.805c1.121.443 2.039.804 2.041.804s.004-.124.004-.274v-.275l-.019-.009-4.037-1.712-.026-.011-2.222.982z"/><path d="m3.783 30.274-1.941.746-1.841.001v.98h34.932v-.98h-1.397l-2.33-.748a140.27 140.27 0 0 0-2.346-.744c-.009.002-.845.338-1.86.748l-1.844.744h-3.747l-2.325-.737-2.364-.749-.039-.011-4.355 1.497h-2.36l-2.107-.747c-1.159-.411-2.113-.747-2.12-.747s-.887.337-1.955.747z"/></symbol><symbol id="sun" viewBox="0 0 32 32"><path d="M4 15H1a1 1 0 0 0 0 2h3a1 1 0 0 0 0-2zM16 5a1 1 0 0 0 1-1V1a1 1 0 0 0-2 0v3a1 1 0 0 0 1 1zm9.621 2.78 2.101-2.101a.99.99 0 1 0-1.401-1.401L24.22 6.379a.99.99 0 1 0 1.401 1.401zM7.41 23.19l-2.101 2.101a.99.99 0 1 0 1.401 1.401l2.101-2.101A.99.99 0 1 0 7.41 23.19zM6.808 8.222a.999.999 0 1 0 1.414-1.414L6.101 4.686A.999.999 0 1 0 4.687 6.1l2.121 2.122zM16 27a1 1 0 0 0-1 1v3a1 1 0 0 0 2 0v-3a1 1 0 0 0-1-1zm9.192-3.222a.999.999 0 1 0-1.414 1.414l2.121 2.121a.999.999 0 1 0 1.414-1.414l-2.121-2.121zM31 15h-3a1 1 0 0 0 0 2h3a1 1 0 0 0 0-2zM16 6.994c-4.974 0-9.006 4.032-9.006 9.006s4.032 9.006 9.006 9.006 9.006-4.032 9.006-9.006S20.974 6.994 16 6.994zm0 16.004a6.998 6.998 0 1 1 0-13.996 6.998 6.998 0 0 1 0 13.996z"/></symbol><symbol id="moon" viewBox="0 0 32 32"><path d="M29.891 11.771c-.531-1.965-1.42-3.803-2.713-5.535-1.293-1.728-2.855-3.154-4.734-4.222C20.609.969 18.641.282 16.545.01c-.435-.054-.775.12-1.001.509-.23.396-.197.781.073 1.13 1.733 2.237 2.676 4.75 2.858 7.574.182 2.804-.453 5.415-1.857 7.866-1.236 2.156-2.909 3.865-5.08 5.115-2.163 1.247-4.497 1.857-6.992 1.857-.801 0-1.402-.035-1.802-.109-.455-.035-.791.132-1.001.509-.227.408-.221.785.073 1.165 1.363 1.771 2.934 3.146 4.661 4.133C9.083 31.251 11.739 32 14.452 32c2.822 0 5.46-.734 7.938-2.183 2.492-1.464 4.467-3.422 5.899-5.9a15.625 15.625 0 0 0 2.003-6.009c.255-2.132.125-4.187-.401-6.137zm-3.35 11.016c-1.253 2.167-2.968 3.88-5.135 5.135s-4.479 1.876-6.955 1.876-4.807-.637-6.973-1.895a13.23 13.23 0 0 1-2.494-1.837 15.644 15.644 0 0 0 7.72-2.241 15.743 15.743 0 0 0 5.662-5.733c1.395-2.408 2.121-5.007 2.148-7.792.028-2.789-.601-5.391-1.911-7.796 1.038.346 1.979.792 2.822 1.274 3.964 2.268 6.395 6.358 6.882 10.542a13.802 13.802 0 0 1-1.766 8.467z"/></symbol></defs></svg>