<svg aria-hidden="true" style="position: absolute; width: 0; height: 0; overflow: hidden;" version="1.1" xmlns="http://www.w3.org/2000/svg" xmlns:xlink="http://www.w3.org/1999/xlink">
<defs>

<!-- Header icons -->
<symbol id="logo" viewBox="0 0 35 32">
<path d="M15.321 0.667l-1.595 0.667-0.002 0.227c-0.001 0.124 0.001 0.227 0.003 0.227s0.718-0.298 1.59-0.663c0.872-0.364 1.59-0.664 1.595-0.665s0.653 0.237 1.437 0.531c0.784 0.293 1.444 0.54 1.465 0.547l0.037 0.014v-0.375l-1.457-0.584c-0.801-0.322-1.462-0.586-1.467-0.588s-0.728 0.296-1.605 0.663z"></path>
<path d="M15.301 1.596l-1.593 0.666v0.456l0.034-0.014c0.019-0.008 0.738-0.308 1.598-0.668l1.565-0.655 1.462 0.547c0.804 0.3 1.464 0.546 1.465 0.546s0.003-0.084 0.002-0.187l-0.002-0.187-1.458-0.585c-0.802-0.322-1.464-0.585-1.47-0.585s-0.728 0.3-1.604 0.666z"></path>
<path d="M15.331 2.503c-0.863 0.362-1.58 0.662-1.592 0.668l-0.024 0.011v0.225c0 0.124 0.001 0.225 0.004 0.225s0.72-0.3 1.596-0.666c0.876-0.367 1.597-0.666 1.6-0.666s0.662 0.245 1.463 0.544c0.801 0.3 1.459 0.545 1.461 0.545s0.004-0.084 0.003-0.187l-0.002-0.187-1.459-0.585c-0.802-0.322-1.464-0.586-1.47-0.585s-0.717 0.296-1.58 0.657z"></path>
<path d="M14.776 3.63l-2.162 0.942v0.321c0 0.254 0.002 0.32 0.009 0.317 0.004-0.002 0.977-0.425 2.16-0.941s2.154-0.937 2.156-0.937c0.003 0 0.895 0.347 1.982 0.771l1.977 0.77 0.002-0.26c0.001-0.144-0.001-0.263-0.004-0.266-0.004-0.004-3.955-1.659-3.959-1.658 0 0-0.973 0.424-2.162 0.942z"></path>
<path d="M14.756 4.936l-2.152 0.938-0.002 0.32c-0.001 0.176 0.001 0.32 0.003 0.32s0.973-0.422 2.157-0.938c1.183-0.516 2.156-0.937 2.161-0.937s0.892 0.345 1.974 0.766c1.082 0.421 1.972 0.768 1.979 0.771 0.011 0.004 0.012-0.011 0.012-0.26v-0.264l-1.971-0.825c-1.085-0.453-1.98-0.826-1.99-0.827-0.011-0.001-0.779 0.33-2.17 0.937z"></path>
<path d="M14.77 6.228l-2.16 0.942-0.002 0.32c-0.001 0.176 0.001 0.32 0.003 0.32s0.976-0.423 2.164-0.94l2.159-0.941 1.975 0.77c1.086 0.423 1.979 0.771 1.984 0.773 0.006 0.003 0.009-0.052 0.009-0.261v-0.265l-0.080-0.034c-0.475-0.2-3.89-1.627-3.892-1.626 0 0-0.973 0.424-2.16 0.942z"></path>
<path d="M13.79 7.784c-1.73 0.729-3.186 1.342-3.234 1.363l-0.088 0.036v0.465c0 0.369 0.002 0.464 0.009 0.461 0.004-0.002 1.458-0.614 3.23-1.361 2.191-0.923 3.229-1.357 3.246-1.357 0.016 0 1.085 0.399 2.98 1.113 1.625 0.612 2.958 1.113 2.963 1.113s0.007-0.129 0.007-0.38v-0.379l-0.030-0.014c-0.142-0.062-5.899-2.384-5.916-2.386s-0.895 0.366-3.168 1.324z"></path>
<path d="M13.683 9.71l-3.239 1.364-0.002 0.466-0.001 0.466 0.016-0.006c0.009-0.004 1.47-0.619 3.244-1.366l3.229-1.359 2.96 1.115c1.629 0.614 2.967 1.117 2.974 1.12 0.011 0.005 0.012-0.015 0.011-0.379l-0.002-0.384-2.971-1.201c-1.634-0.661-2.973-1.201-2.975-1.2s-1.461 0.614-3.243 1.364z"></path>
<path d="M13.692 11.639l-3.238 1.363v0.464c0 0.255 0.001 0.463 0.003 0.463s1.46-0.614 3.241-1.363c1.956-0.824 3.244-1.362 3.252-1.359s1.345 0.503 2.97 1.116c1.626 0.613 2.959 1.113 2.963 1.113s0.006-0.159 0.006-0.381v-0.38l-2.97-1.2c-1.633-0.659-2.974-1.199-2.98-1.199s-1.467 0.614-3.248 1.364z"></path>
<path d="M13.669 13.529l-3.239 1.364-0.002 0.466-0.001 0.466 0.016-0.006c0.009-0.004 1.47-0.618 3.246-1.366l3.229-1.359 5.942 2.237 0.002-0.38c0.001-0.209-0.001-0.382-0.004-0.385-0.006-0.006-5.922-2.396-5.937-2.399-0.006-0.001-1.468 0.612-3.25 1.363z"></path>
<path d="M26.038 14.375l-2.748 1.16v0.396c0 0.314 0.002 0.395 0.009 0.392 0.004-0.002 1.241-0.524 2.747-1.159s2.744-1.156 2.75-1.157 1.142 0.426 2.526 0.947c1.383 0.522 2.516 0.949 2.519 0.949s0.004-0.146 0.004-0.324v-0.325l-2.514-1.018c-1.382-0.56-2.521-1.018-2.529-1.020s-1.252 0.52-2.763 1.158z"></path>
<path d="M13.69 15.402l-3.239 1.364-0.002 0.466-0.001 0.466 0.041-0.017c0.023-0.009 1.482-0.624 3.244-1.365l3.203-1.349 2.961 1.115c1.628 0.614 2.967 1.118 2.974 1.12 0.011 0.005 0.012-0.015 0.011-0.379l-0.002-0.384-2.971-1.201c-1.634-0.66-2.973-1.2-2.975-1.2s-1.461 0.614-3.243 1.364z"></path>
<path d="M26.017 15.984l-2.748 1.16v0.392c0 0.309 0.002 0.392 0.009 0.392 0.004 0 1.244-0.521 2.754-1.158l2.745-1.158 2.521 0.951c1.386 0.523 2.521 0.95 2.523 0.95s0.003-0.146 0.003-0.325c0-0.253-0.002-0.325-0.009-0.328-0.005-0.002-1.136-0.46-2.512-1.017s-2.511-1.015-2.521-1.016c-0.011-0.001-1.008 0.415-2.765 1.157z"></path>
<path d="M13.68 17.287c-1.768 0.745-3.225 1.359-3.237 1.365l-0.024 0.011v0.462c0 0.437 0.001 0.462 0.013 0.459 0.006-0.002 1.459-0.613 3.226-1.357s3.224-1.357 3.236-1.36c0.019-0.006 0.348 0.116 2.978 1.107 1.626 0.612 2.964 1.115 2.973 1.117l0.016 0.003-0.001-0.381-0.002-0.381-2.968-1.2c-1.632-0.659-2.974-1.199-2.982-1.199s-1.461 0.61-3.229 1.354z"></path>
<path d="M26.043 17.572l-2.75 1.16-0.002 0.395c-0.001 0.217 0 0.395 0.002 0.395s1.237-0.521 2.744-1.156c1.507-0.636 2.748-1.156 2.758-1.156s1.148 0.427 2.528 0.948l2.51 0.948 0.002-0.323c0.001-0.177-0.001-0.325-0.004-0.328s-1.128-0.459-2.5-1.015c-1.372-0.555-2.505-1.013-2.517-1.019-0.022-0.009-0.094 0.021-2.772 1.151z"></path>
<path d="M3.683 18.281l-2.22 0.982-0.002 0.336-0.001 0.337 0.044-0.021c0.233-0.105 4.405-1.945 4.411-1.945s3.326 1.309 4.075 1.607c0.007 0.003 0.009-0.053 0.007-0.273l-0.002-0.277-2.038-0.864c-1.121-0.476-2.041-0.865-2.045-0.864s-1.006 0.443-2.228 0.983z"></path>
<path d="M13.676 19.221l-3.239 1.364-0.002 0.466-0.001 0.466 0.026-0.011c0.015-0.006 1.475-0.621 3.245-1.366l3.218-1.355 2.96 1.115c1.628 0.614 2.966 1.117 2.973 1.12 0.011 0.005 0.012-0.015 0.011-0.379l-0.002-0.385-2.971-1.2c-1.634-0.661-2.973-1.201-2.975-1.2s-1.461 0.615-3.243 1.365z"></path>
<path d="M26.022 19.181l-2.75 1.159-0.002 0.395c-0.001 0.217 0 0.395 0.001 0.395s1.239-0.521 2.75-1.158c1.511-0.637 2.75-1.158 2.752-1.158s1.138 0.428 2.522 0.95l2.517 0.95 0.002-0.323c0.001-0.177-0.001-0.324-0.004-0.327-0.004-0.004-4.797-1.947-5.008-2.030l-0.032-0.013-2.75 1.16z"></path>
<path d="M3.692 19.632l-2.218 0.98-0.001 0.334c0 0.184 0.001 0.335 0.004 0.335s1.002-0.441 2.222-0.98c1.221-0.54 2.224-0.98 2.23-0.98s0.926 0.363 2.045 0.805l2.034 0.804 0.002-0.272c0.001-0.149-0.001-0.275-0.004-0.277-0.011-0.011-4.072-1.73-4.084-1.729-0.006 0.001-1.010 0.442-2.23 0.982z"></path>
<path d="M26.032 20.82l-2.752 1.161-0.002 0.395c-0.001 0.374-0.001 0.395 0.011 0.391 0.007-0.001 1.246-0.523 2.754-1.159l2.741-1.156 2.511 0.948c1.382 0.521 2.517 0.95 2.524 0.952 0.011 0.005 0.012-0.012 0.011-0.322l-0.002-0.327-2.428-0.983c-1.335-0.54-2.47-1-2.521-1.021l-0.094-0.039-2.752 1.161z"></path>
<path d="M13.65 21.114l-3.238 1.363v0.464c0 0.255 0.001 0.463 0.004 0.463s1.46-0.613 3.239-1.362 3.239-1.362 3.244-1.362 5.932 2.229 5.944 2.236c0.003 0.001 0.005-0.17 0.005-0.382l-0.001-0.385-2.963-1.197c-1.63-0.659-2.971-1.198-2.98-1.199s-1.3 0.538-3.253 1.361z"></path>
<path d="M3.683 20.991l-2.22 0.982-0.002 0.337-0.001 0.336 0.073-0.033c0.041-0.018 1.042-0.46 2.225-0.983l2.152-0.951 2.028 0.802c1.116 0.441 2.034 0.803 2.041 0.806 0.011 0.004 0.012-0.011 0.011-0.272l-0.002-0.276-2.031-0.862c-1.117-0.473-2.036-0.862-2.042-0.864s-1.010 0.439-2.231 0.979z"></path>
<path d="M26.008 22.429l-2.75 1.16-0.002 0.395c-0.001 0.217 0.001 0.394 0.003 0.394s1.242-0.522 2.754-1.159l2.749-1.16 2.508 0.946c1.379 0.521 2.515 0.949 2.524 0.952l0.016 0.006-0.001-0.327-0.002-0.326-2.524-1.022c-1.388-0.561-2.524-1.021-2.524-1.020s-1.238 0.523-2.75 1.161z"></path>
<path d="M3.692 22.38l-2.226 0.984v0.335c0 0.184 0.002 0.334 0.006 0.332s1.004-0.444 2.225-0.984l2.22-0.98 2.027 0.801c1.115 0.441 2.034 0.803 2.044 0.805l0.016 0.004v-0.544l-0.019-0.011c-0.014-0.007-3.775-1.603-4.046-1.717-0.021-0.009-0.11 0.030-2.247 0.974z"></path>
<path d="M13.669 22.961l-3.239 1.364-0.002 0.463c-0.001 0.335 0.001 0.463 0.006 0.463 0.004 0 1.461-0.611 3.237-1.359s3.233-1.361 3.237-1.363c0.006-0.002 5.642 2.114 5.919 2.222l0.034 0.014v-0.385l-0.001-0.384-2.962-1.196c-1.629-0.658-2.968-1.198-2.976-1.199s-1.337 0.553-3.254 1.362z"></path>
<path d="M3.672 23.744l-2.224 0.983-0.002 0.333c-0.001 0.223 0.001 0.332 0.006 0.332s1.005-0.441 2.225-0.98c1.363-0.602 2.224-0.979 2.233-0.977s3.857 1.522 4.064 1.605c0.007 0.003 0.009-0.053 0.007-0.273l-0.002-0.277-2.038-0.865c-1.121-0.475-2.039-0.864-2.042-0.864s-1.004 0.443-2.228 0.983z"></path>
<path d="M26.041 23.991c-1.498 0.632-2.734 1.155-2.747 1.161l-0.024 0.011v0.394c0 0.313 0.002 0.393 0.009 0.39 0.004-0.002 1.243-0.524 2.751-1.161s2.745-1.156 2.75-1.156c0.004 0 1.138 0.427 2.521 0.949s2.516 0.948 2.519 0.948c0.002 0 0.004-0.146 0.004-0.324v-0.324l-2.514-1.018c-1.383-0.56-2.521-1.018-2.53-1.020s-1.241 0.516-2.739 1.148z"></path>
<path d="M13.768 24.8c-1.718 0.724-3.178 1.338-3.244 1.366l-0.12 0.051v0.464c0 0.255 0.001 0.464 0.002 0.464s1.46-0.614 3.243-1.364l3.241-1.364 2.969 1.118c1.633 0.615 2.971 1.118 2.975 1.118s0.005-0.172 0.005-0.381v-0.381l-2.847-1.151c-1.567-0.633-2.905-1.173-2.974-1.202l-0.127-0.051-3.123 1.314z"></path>
<path d="M3.683 25.074l-2.22 0.983-0.002 0.337c-0.001 0.185 0.001 0.335 0.004 0.334 0.014-0.009 4.444-1.964 4.45-1.964 0.004 0 0.922 0.362 2.042 0.804s2.037 0.804 2.038 0.804c0.002 0 0.002-0.124 0.001-0.276l-0.002-0.276-2.031-0.861c-1.117-0.474-2.037-0.862-2.045-0.864s-0.979 0.423-2.235 0.979z"></path>
<path d="M26 25.607c-1.508 0.637-2.744 1.159-2.748 1.16s-0.004 0.18-0.004 0.397l0.002 0.395 2.746-1.158c1.51-0.637 2.752-1.158 2.76-1.158s1.145 0.426 2.526 0.948c1.382 0.521 2.514 0.948 2.515 0.948s0.004-0.146 0.004-0.325v-0.325l-0.044-0.018c-0.025-0.010-1.155-0.468-2.512-1.017s-2.475-1-2.485-1.002c-0.011-0.001-1.013 0.418-2.76 1.156z"></path>
<path d="M13.657 26.778l-3.238 1.364v0.463c0 0.255 0.002 0.463 0.005 0.463s1.462-0.614 3.243-1.363l3.237-1.363 2.963 1.116c1.63 0.614 2.968 1.118 2.975 1.121 0.011 0.005 0.012-0.015 0.011-0.379l-0.002-0.384-2.971-1.201c-1.634-0.66-2.974-1.2-2.978-1.2s-1.464 0.614-3.244 1.364z"></path>
<path d="M3.663 26.439l-2.219 0.981v0.335c0 0.265 0.002 0.335 0.009 0.332 0.004-0.002 1.005-0.444 2.222-0.982s2.218-0.978 2.224-0.977c0.006 0 0.923 0.361 2.038 0.802s2.031 0.801 2.036 0.801c0.008 0 0.009-0.054 0.008-0.273l-0.002-0.273-2.034-0.864c-1.119-0.474-2.041-0.863-2.049-0.863s-1.013 0.442-2.232 0.981z"></path>
<path d="M26.010 27.246l-2.748 1.16v0.791l0.024-0.009c1.387-0.588 5.475-2.31 5.483-2.309 0.006 0 1.141 0.427 2.524 0.948s2.516 0.948 2.519 0.948c0.004 0 0.006-0.146 0.006-0.324v-0.323l-2.523-1.021c-1.387-0.561-2.525-1.020-2.529-1.020s-1.244 0.523-2.755 1.16z"></path>
<path d="M3.674 27.825l-2.222 0.982-0.001 0.334c0 0.184 0.002 0.335 0.004 0.335s1.002-0.441 2.222-0.98c1.22-0.54 2.223-0.98 2.229-0.98s0.926 0.363 2.045 0.805l2.034 0.804 0.002-0.272c0.001-0.15-0.001-0.275-0.004-0.278-0.008-0.008-4.057-1.724-4.075-1.728-0.008-0.001-1.010 0.438-2.236 0.979z"></path>
<path d="M15.832 27.745c-0.576 0.242-2.037 0.857-3.244 1.366l-2.197 0.925v0.465c0 0.439 0.001 0.464 0.013 0.459 0.006-0.002 1.465-0.616 3.241-1.364s3.232-1.359 3.236-1.359c0.004 0 1.338 0.501 2.964 1.114s2.963 1.116 2.97 1.117c0.011 0.004 0.012-0.018 0.012-0.378v-0.383l-2.722-1.1c-1.498-0.605-2.836-1.146-2.973-1.201l-0.251-0.102-1.047 0.441z"></path>
<path d="M25.99 28.854c-1.51 0.637-2.747 1.159-2.748 1.161s-0.001 0.18-0.001 0.396l0.002 0.393 5.502-2.32 2.519 0.95c1.386 0.523 2.521 0.95 2.525 0.95s0.005-0.146 0.005-0.324v-0.324l-2.515-1.018c-1.384-0.56-2.522-1.019-2.53-1.020s-1.25 0.519-2.759 1.156z"></path>
<path d="M3.664 29.186l-2.223 0.983-0.002 0.337c-0.001 0.185 0.001 0.335 0.004 0.334s1.005-0.445 2.225-0.984l2.22-0.981 2.037 0.805c1.121 0.443 2.039 0.804 2.041 0.804s0.004-0.124 0.004-0.274v-0.275l-0.019-0.009c-0.017-0.007-3.978-1.688-4.037-1.712l-0.026-0.011-2.222 0.982z"></path>
<path d="M3.783 30.274l-1.941 0.746-1.841 0.001v0.98h34.932v-0.98h-1.397l-2.33-0.748c-1.461-0.469-2.336-0.747-2.346-0.744-0.009 0.002-0.845 0.338-1.86 0.748l-1.844 0.744h-3.747l-2.325-0.737c-1.279-0.406-2.343-0.742-2.364-0.749l-0.039-0.011-4.355 1.497h-2.36l-2.107-0.747c-1.159-0.411-2.113-0.747-2.12-0.747s-0.887 0.337-1.955 0.747z"></path>
</symbol>

<symbol id="sun" viewBox="0 0 32 32">
<path d="M4 15h-3c-0.552 0-1 0.448-1 1s0.448 1 1 1h3c0.552 0 1-0.448 1-1s-0.448-1-1-1zM16 5c0.552 0 1-0.448 1-1v-3c0-0.552-0.448-1-1-1s-1 0.448-1 1v3c0 0.552 0.448 1 1 1zM25.621 7.78l2.101-2.101c0.387-0.387 0.387-1.014 0-1.401s-1.014-0.387-1.401 0l-2.101 2.101c-0.387 0.387-0.387 1.014 0 1.401s1.014 0.387 1.401 0zM7.41 23.19l-2.101 2.101c-0.387 0.387-0.387 1.014 0 1.401s1.014 0.387 1.401 0l2.101-2.101c0.387-0.387 0.387-1.014 0-1.401s-1.014-0.387-1.401 0zM6.808 8.222c0.391 0.391 1.024 0.391 1.414 0s0.39-1.024 0-1.414l-2.121-2.122c-0.391-0.391-1.024-0.391-1.414 0-0.391 0.391-0.391 1.024 0 1.414l2.121 2.122zM16 27c-0.552 0-1 0.448-1 1v3c0 0.552 0.448 1 1 1s1-0.448 1-1v-3c0-0.552-0.448-1-1-1zM25.192 23.778c-0.391-0.391-1.024-0.391-1.414 0s-0.391 1.024 0 1.414l2.121 2.121c0.391 0.391 1.024 0.391 1.414 0s0.391-1.024 0-1.414l-2.121-2.121zM31 15h-3c-0.552 0-1 0.448-1 1s0.448 1 1 1h3c0.552 0 1-0.448 1-1s-0.448-1-1-1zM16 6.994c-4.974 0-9.006 4.032-9.006 9.006s4.032 9.006 9.006 9.006 9.006-4.032 9.006-9.006-4.032-9.006-9.006-9.006zM16 22.998c-3.865 0-6.998-3.133-6.998-6.998s3.133-6.998 6.998-6.998 6.998 3.133 6.998 6.998-3.133 6.998-6.998 6.998z"></path>
</symbol>

<symbol id="moon" viewBox="0 0 32 32">
<path d="M29.891 11.771c-0.531-1.965-1.42-3.803-2.713-5.535-1.293-1.728-2.855-3.154-4.734-4.222-1.835-1.045-3.803-1.732-5.899-2.004-0.435-0.054-0.775 0.12-1.001 0.509-0.23 0.396-0.197 0.781 0.073 1.13 1.733 2.237 2.676 4.75 2.858 7.574 0.182 2.804-0.453 5.415-1.857 7.866-1.236 2.156-2.909 3.865-5.080 5.115-2.163 1.247-4.497 1.857-6.992 1.857-0.801 0-1.402-0.035-1.802-0.109-0.455-0.035-0.791 0.132-1.001 0.509-0.227 0.408-0.221 0.785 0.073 1.165 1.363 1.771 2.934 3.146 4.661 4.133 2.606 1.492 5.262 2.241 7.975 2.241 2.822 0 5.46-0.734 7.938-2.183 2.492-1.464 4.467-3.422 5.899-5.9 1.081-1.872 1.748-3.88 2.003-6.009 0.255-2.132 0.125-4.187-0.401-6.137zM26.541 22.787c-1.253 2.167-2.968 3.88-5.135 5.135s-4.479 1.876-6.955 1.876c-2.476 0-4.807-0.637-6.973-1.895-1.002-0.579-1.821-1.2-2.494-1.837 2.768-0.074 5.335-0.82 7.72-2.241 2.385-1.418 4.272-3.333 5.662-5.733 1.395-2.408 2.121-5.007 2.148-7.792 0.028-2.789-0.601-5.391-1.911-7.796 1.038 0.346 1.979 0.792 2.822 1.274 3.964 2.268 6.395 6.358 6.882 10.542 0.331 2.847-0.252 5.85-1.766 8.467z"></path>
</symbol>

</defs>
</svg>
